<?xml version="1.0" standalone="no"?>
<!DOCTYPE svg PUBLIC "-//W3C//DTD SVG 20010904//EN"
 "http://www.w3.org/TR/2001/REC-SVG-20010904/DTD/svg10.dtd">
<svg version="1.0" xmlns="http://www.w3.org/2000/svg"
 width="431.000000pt" height="431.000000pt" viewBox="0 0 431.000000 431.000000"
 preserveAspectRatio="xMidYMid meet">
<metadata>
Created by potrace 1.14, written by Peter Selinger 2001-2017
</metadata>
<g transform="translate(0.000000,431.000000) scale(0.100000,-0.100000)"
fill="#000000" stroke="none">
<path d="M2009 4296 c-2 -2 -38 -6 -79 -10 -317 -27 -679 -158 -961 -347 -532
-357 -884 -936 -946 -1556 -9 -92 -9 -387 0 -458 13 -100 18 -131 33 -205 85
-407 282 -774 572 -1066 119 -119 135 -133 237 -210 107 -79 284 -194 301
-194 3 0 47 -20 97 -44 129 -62 372 -140 502 -161 137 -23 196 -28 350 -30 99
-2 214 1 255 6 41 5 91 11 111 14 67 8 254 54 344 85 50 17 95 32 100 34 98
31 383 185 480 258 316 241 517 480 675 803 154 314 215 584 215 945 0 340
-50 573 -190 882 -202 447 -550 809 -992 1031 -207 105 -433 174 -688 212 -46
7 -410 17 -416 11z m226 -2141 l0 -1360 -100 -1 c-194 -2 -409 52 -599 149
-252 129 -474 353 -601 607 -47 93 -88 201 -80 209 4 3 217 6 473 6 l467 0 1
388 c1 275 -2 387 -10 388 -6 1 -148 2 -316 3 -264 2 -310 5 -345 20 -105 45
-165 166 -136 273 32 118 259 359 450 478 156 96 363 171 534 191 29 4 53 7
54 8 1 1 48 2 105 1 l103 0 0 -1360z"/>
</g>
</svg>
